<svg width="26.000000" height="26.000000" viewBox="0 0 26 26" fill="none" xmlns="http://www.w3.org/2000/svg" xmlns:xlink="http://www.w3.org/1999/xlink">
	<desc>
			Created with Pixso.
	</desc>
	<defs>
		<clipPath id="clip12_19">
			<rect id="menu btn" width="26.000000" height="26.000000" fill="white" fill-opacity="0"/>
		</clipPath>
	</defs>
	<g clip-path="url(#clip12_19)">
		<path id="path" d="M4.08 8.54L4.06 8.56C3.36 8.56 2.81 8.01 2.81 7.31C2.81 6.61 3.36 6.06 4.06 6.06L4.08 6.08L4.08 8.54ZM21.91 6.08L21.93 6.06C22.63 6.06 23.18 6.61 23.18 7.31C23.18 8.01 22.63 8.56 21.93 8.56L21.91 8.54L21.91 6.08ZM4.08 14.23L4.06 14.25C3.36 14.25 2.81 13.7 2.81 13C2.81 12.3 3.36 11.75 4.06 11.75L4.08 11.77L4.08 14.23ZM21.91 11.77L21.93 11.75C22.63 11.75 23.18 12.3 23.18 13C23.18 13.7 22.63 14.25 21.93 14.25L21.91 14.23L21.91 11.77ZM4.08 19.91L4.06 19.93C3.36 19.93 2.81 19.38 2.81 18.68C2.81 17.98 3.36 17.43 4.06 17.43L4.08 17.45L4.08 19.91ZM21.91 17.45L21.93 17.43C22.63 17.43 23.18 17.98 23.18 18.68C23.18 19.38 22.63 19.93 21.93 19.93L21.91 19.91L21.91 17.45Z" fill="#000000" fill-opacity="0" fill-rule="nonzero"/>
		<path id="path" d="M4.06 7.31L21.93 7.31M4.06 13L21.93 13M4.06 18.68L21.93 18.68" stroke="#FFFFFF" stroke-opacity="1.000000" stroke-width="2.500000" stroke-linejoin="round" stroke-linecap="round"/>
	</g>
</svg>
