<svg width="26.000000" height="26.000000" viewBox="0 0 26 26" fill="none" xmlns="http://www.w3.org/2000/svg" xmlns:xlink="http://www.w3.org/1999/xlink">
	<desc>
			Created with Pixso.
	</desc>
	<defs>
		<clipPath id="clip12_17">
			<rect id="search btn" width="26.000000" height="26.000000" fill="white" fill-opacity="0"/>
		</clipPath>
	</defs>
	<g clip-path="url(#clip12_17)">
		<path id="path" d="M17.11 17.11C17.88 16.35 18.47 15.47 18.88 14.48C19.29 13.48 19.5 12.45 19.5 11.37C19.5 10.29 19.29 9.25 18.88 8.26C18.47 7.26 17.88 6.38 17.12 5.62C16.36 4.86 15.48 4.27 14.48 3.86C13.49 3.45 12.45 3.24 11.37 3.24C10.29 3.24 9.26 3.45 8.26 3.86C7.26 4.27 6.39 4.86 5.62 5.62C4.86 6.39 4.28 7.26 3.86 8.26C3.45 9.26 3.25 10.29 3.25 11.37C3.25 12.45 3.45 13.48 3.86 14.48C4.28 15.47 4.86 16.35 5.63 17.11C6.39 17.87 7.27 18.46 8.26 18.87C9.26 19.29 10.29 19.49 11.37 19.49C12.45 19.49 13.48 19.29 14.48 18.88C15.47 18.46 16.35 17.88 17.11 17.11ZM23.95 21.51L23.98 21.51C24.68 22.2 24.68 23.29 23.98 23.98C23.29 24.68 22.2 24.68 21.51 23.98L21.51 23.95L23.95 21.51Z" fill="#000000" fill-opacity="0" fill-rule="nonzero"/>
		<path id="path" d="M22.75 22.75L17.11 17.11M18.88 14.48C19.29 13.48 19.5 12.45 19.5 11.37C19.5 10.29 19.29 9.25 18.88 8.26C18.47 7.26 17.88 6.38 17.12 5.62C16.36 4.86 15.48 4.27 14.48 3.86C13.49 3.45 12.45 3.24 11.37 3.24C10.29 3.24 9.26 3.45 8.26 3.86C7.26 4.27 6.39 4.86 5.62 5.62C4.86 6.39 4.28 7.26 3.86 8.26C3.45 9.26 3.25 10.29 3.25 11.37C3.25 12.45 3.45 13.48 3.86 14.48C4.28 15.47 4.86 16.35 5.63 17.11C6.39 17.87 7.27 18.46 8.26 18.87C9.26 19.29 10.29 19.49 11.37 19.49C12.45 19.49 13.48 19.29 14.48 18.88C15.47 18.46 16.35 17.88 17.11 17.11C17.88 16.35 18.47 15.47 18.88 14.48Z" stroke="#FFFFFF" stroke-opacity="1.000000" stroke-width="3.500000" stroke-linejoin="round" stroke-linecap="round"/>
	</g>
</svg>
